<svg width="33" height="33" viewBox="0 0 33 33" fill="none" xmlns="http://www.w3.org/2000/svg">
<path d="M16.9125 16.8025C17.6462 16.1674 18.2346 15.382 18.638 14.4994C19.0413 13.6168 19.25 12.6578 19.25 11.6875C19.25 9.86414 18.5257 8.11545 17.2364 6.82614C15.947 5.53683 14.1984 4.8125 12.375 4.8125C10.5516 4.8125 8.80295 5.53683 7.51364 6.82614C6.22433 8.11545 5.5 9.86414 5.5 11.6875C5.49999 12.6578 5.70873 13.6168 6.11205 14.4994C6.51537 15.382 7.10383 16.1674 7.8375 16.8025C5.91269 17.6741 4.27964 19.0816 3.1336 20.8567C1.98756 22.6319 1.37702 24.6996 1.375 26.8125C1.375 27.1772 1.51987 27.5269 1.77773 27.7848C2.03559 28.0426 2.38533 28.1875 2.75 28.1875C3.11467 28.1875 3.46441 28.0426 3.72227 27.7848C3.98013 27.5269 4.125 27.1772 4.125 26.8125C4.125 24.6245 4.99419 22.526 6.54137 20.9789C8.08854 19.4317 10.187 18.5625 12.375 18.5625C14.563 18.5625 16.6615 19.4317 18.2086 20.9789C19.7558 22.526 20.625 24.6245 20.625 26.8125C20.625 27.1772 20.7699 27.5269 21.0277 27.7848C21.2856 28.0426 21.6353 28.1875 22 28.1875C22.3647 28.1875 22.7144 28.0426 22.9723 27.7848C23.2301 27.5269 23.375 27.1772 23.375 26.8125C23.373 24.6996 22.7624 22.6319 21.6164 20.8567C20.4704 19.0816 18.8373 17.6741 16.9125 16.8025ZM12.375 15.8125C11.5592 15.8125 10.7616 15.5706 10.0833 15.1173C9.40492 14.6641 8.87621 14.0198 8.564 13.2661C8.25179 12.5123 8.1701 11.6829 8.32926 10.8828C8.48843 10.0826 8.88129 9.34758 9.45818 8.77068C10.0351 8.19379 10.7701 7.80093 11.5703 7.64176C12.3704 7.4826 13.1998 7.56429 13.9536 7.8765C14.7073 8.18871 15.3516 8.71742 15.8048 9.39577C16.2581 10.0741 16.5 10.8717 16.5 11.6875C16.5 12.7815 16.0654 13.8307 15.2918 14.6043C14.5182 15.3779 13.469 15.8125 12.375 15.8125ZM25.7675 16.2525C26.6475 15.2616 27.2223 14.0375 27.4227 12.7275C27.6232 11.4175 27.4408 10.0775 26.8974 8.86875C26.3541 7.66002 25.473 6.63409 24.3601 5.91446C23.2473 5.19482 21.9502 4.81215 20.625 4.8125C20.2603 4.8125 19.9106 4.95737 19.6527 5.21523C19.3949 5.47309 19.25 5.82283 19.25 6.1875C19.25 6.55217 19.3949 6.90191 19.6527 7.15977C19.9106 7.41763 20.2603 7.5625 20.625 7.5625C21.719 7.5625 22.7682 7.9971 23.5418 8.77068C24.3154 9.54427 24.75 10.5935 24.75 11.6875C24.7481 12.4097 24.5565 13.1187 24.1946 13.7437C23.8326 14.3687 23.313 14.8876 22.6875 15.2488C22.4836 15.3663 22.3134 15.5343 22.193 15.7365C22.0726 15.9387 22.0062 16.1685 22 16.4038C21.9942 16.6372 22.048 16.8682 22.1563 17.0751C22.2645 17.282 22.4237 17.4579 22.6188 17.5863L23.155 17.9438L23.3337 18.04C24.9912 18.8261 26.3894 20.0695 27.3638 21.6237C28.3383 23.1779 28.8483 24.9782 28.8337 26.8125C28.8337 27.1772 28.9786 27.5269 29.2365 27.7848C29.4943 28.0426 29.8441 28.1875 30.2087 28.1875C30.5734 28.1875 30.9232 28.0426 31.181 27.7848C31.4389 27.5269 31.5837 27.1772 31.5837 26.8125C31.595 24.7025 31.0665 22.6246 30.0485 20.7763C29.0305 18.9281 27.5568 17.3708 25.7675 16.2525Z" fill="#8A8A8A"/>
</svg>
