<svg width="33" height="33" viewBox="0 0 33 33" fill="none" xmlns="http://www.w3.org/2000/svg">
<path d="M28.1935 21.6475C27.3522 21.2876 26.6356 20.6879 26.1331 19.9233C25.6307 19.1586 25.3647 18.2628 25.3683 17.3478C25.3792 16.5311 25.5979 15.7306 26.0039 15.0218C26.4098 14.313 26.9896 13.7193 27.6886 13.2967C27.8467 13.199 27.9834 13.0702 28.0904 12.9181C28.1973 12.7661 28.2724 12.5939 28.3109 12.412C28.3494 12.2302 28.3507 12.0424 28.3146 11.86C28.2785 11.6777 28.2057 11.5045 28.1008 11.3511C27.4725 10.4373 26.6534 9.67082 25.7 9.10447C24.7466 8.53812 23.6816 8.1854 22.5787 8.07067C23.6052 6.44149 24.0711 4.52138 23.9053 2.60288C23.8729 2.25451 23.7069 1.93222 23.442 1.70365C23.1771 1.47507 22.834 1.35797 22.4847 1.37693C20.1237 1.58735 17.9351 2.70091 16.3751 4.48545C15.3861 5.63135 14.6883 6.99894 14.3408 8.47213C13.6228 8.22915 12.871 8.10047 12.1131 8.09079C10.7099 8.13056 9.34076 8.53222 8.13846 9.25682C6.93616 9.98141 5.94147 11.0044 5.25085 12.2265C2.65526 16.7328 4.2431 23.4857 7.05485 27.5502C8.18278 29.179 9.87535 31.6242 12.4286 31.6242C12.479 31.6242 12.53 31.6242 12.581 31.6215C13.4365 31.5729 14.2741 31.3562 15.0457 30.9836C15.662 30.6712 16.342 30.5049 17.033 30.4976C17.6828 30.5055 18.3218 30.6645 18.8995 30.9622C19.7435 31.3615 20.6634 31.5753 21.5971 31.5892C24.2276 31.5395 25.7812 29.2703 26.9158 27.6119C27.8111 26.2947 28.5116 24.8552 28.9958 23.3379C29.099 23.0068 29.0737 22.6491 28.925 22.3358C28.7764 22.0226 28.5152 21.7768 28.1935 21.6475ZM18.457 6.28076C19.1792 5.47294 20.0841 4.84956 21.0962 4.46265C20.8748 5.55197 20.3849 6.56877 19.6709 7.42077C19.1863 8.00222 18.5966 8.48735 17.9327 8.85088L17.9287 8.85225C17.8897 8.86837 17.8508 8.88313 17.8118 8.89925C17.5553 8.99995 17.2384 9.12483 16.994 9.20539C17.23 8.12372 17.733 7.11829 18.457 6.28076ZM24.6465 26.0598C23.5414 27.6738 22.672 28.8192 21.5467 28.8393C21.0028 28.8376 20.468 28.6996 19.9911 28.4378C19.0694 27.9887 18.0584 27.7528 17.033 27.7476C15.972 27.753 14.9255 27.9937 13.9688 28.4525C13.5037 28.69 12.9963 28.8333 12.4756 28.8742H12.4347C11.3168 28.8742 10.1144 27.138 9.31609 25.9845C7.31871 23.0976 5.47643 17.3451 7.63427 13.5988C8.08676 12.7881 8.74113 12.1081 9.53388 11.6249C10.3266 11.1417 11.2308 10.8716 12.1587 10.8408L12.2051 10.8394C12.9878 10.906 13.7522 11.1129 14.4616 11.4504C14.6422 11.5216 14.8201 11.5927 14.9967 11.6585C15.0417 11.6773 15.088 11.6948 15.135 11.7096C15.6243 11.9064 16.1441 12.0168 16.6711 12.0359C17.4174 11.9766 18.1464 11.7804 18.8216 11.4571C19.7735 10.9952 20.8198 10.7612 21.8778 10.7737C23.0094 10.8179 24.0958 11.2299 24.9722 11.9472C24.2232 12.6373 23.6269 13.4764 23.2215 14.4107C22.8161 15.3449 22.6107 16.3537 22.6183 17.372V17.3734C22.6105 18.6063 22.9157 19.821 23.5051 20.9038C24.0945 21.9866 24.9491 22.9022 25.9887 23.5649C25.6267 24.4397 25.177 25.2756 24.6465 26.0598Z" fill="url(#paint0_linear_380_2220)"/>
<defs>
<linearGradient id="paint0_linear_380_2220" x1="16.497" y1="1.37494" x2="16.497" y2="31.6242" gradientUnits="userSpaceOnUse">
<stop stop-color="#9A5ECD"/>
<stop offset="1" stop-color="#412BD9"/>
</linearGradient>
</defs>
</svg>
