<svg width="25" height="24" viewBox="0 0 25 24" fill="none" xmlns="http://www.w3.org/2000/svg">
<path d="M18.2102 11.29C18.1172 11.1963 18.0066 11.1219 17.8848 11.0711C17.7629 11.0203 17.6322 10.9942 17.5002 10.9942C17.3682 10.9942 17.2375 11.0203 17.1156 11.0711C16.9937 11.1219 16.8831 11.1963 16.7902 11.29L13.5002 14.59V7C13.5002 6.73478 13.3948 6.48043 13.2073 6.29289C13.0198 6.10536 12.7654 6 12.5002 6C12.235 6 11.9806 6.10536 11.7931 6.29289C11.6055 6.48043 11.5002 6.73478 11.5002 7V14.59L8.21019 11.29C8.02188 11.1017 7.76649 10.9959 7.50019 10.9959C7.23388 10.9959 6.97849 11.1017 6.79019 11.29C6.60188 11.4783 6.49609 11.7337 6.49609 12C6.49609 12.2663 6.60188 12.5217 6.79019 12.71L11.7902 17.71C11.8853 17.801 11.9974 17.8724 12.1202 17.92C12.2399 17.9729 12.3693 18.0002 12.5002 18.0002C12.6311 18.0002 12.7605 17.9729 12.8802 17.92C13.0029 17.8724 13.1151 17.801 13.2102 17.71L18.2102 12.71C18.3039 12.617 18.3783 12.5064 18.4291 12.3846C18.4798 12.2627 18.506 12.132 18.506 12C18.506 11.868 18.4798 11.7373 18.4291 11.6154C18.3783 11.4936 18.3039 11.383 18.2102 11.29Z" fill="white"/>
</svg>
