<svg width="509" height="54" viewBox="0 0 509 54" fill="none" xmlns="http://www.w3.org/2000/svg">
<path d="M212.21 26.29C212.117 26.1963 212.007 26.1219 211.885 26.0711C211.763 26.0203 211.632 25.9942 211.5 25.9942C211.368 25.9942 211.237 26.0203 211.116 26.0711C210.994 26.1219 210.883 26.1963 210.79 26.29L207.5 29.59V22C207.5 21.7348 207.395 21.4804 207.207 21.2929C207.02 21.1054 206.765 21 206.5 21C206.235 21 205.981 21.1054 205.793 21.2929C205.606 21.4804 205.5 21.7348 205.5 22V29.59L202.21 26.29C202.022 26.1017 201.766 25.9959 201.5 25.9959C201.234 25.9959 200.978 26.1017 200.79 26.29C200.602 26.4783 200.496 26.7337 200.496 27C200.496 27.2663 200.602 27.5217 200.79 27.71L205.79 32.71C205.885 32.801 205.997 32.8724 206.12 32.92C206.24 32.9729 206.369 33.0002 206.5 33.0002C206.631 33.0002 206.76 32.9729 206.88 32.92C207.003 32.8724 207.115 32.801 207.21 32.71L212.21 27.71C212.304 27.617 212.378 27.5064 212.429 27.3846C212.48 27.2627 212.506 27.132 212.506 27C212.506 26.868 212.48 26.7373 212.429 26.6154C212.378 26.4936 212.304 26.383 212.21 26.29Z" fill="white"/>
<path d="M231.3 34H224.92V19.7H230.94C233.88 19.7 235.6 21.02 235.6 23.3C235.6 25.06 234.56 25.88 233.38 26.28V26.32C234.88 26.58 236.16 27.68 236.16 29.82C236.16 32.56 234.26 34 231.3 34ZM227.12 25.64H230.88C232.68 25.64 233.3 24.9 233.3 23.62C233.3 22.36 232.54 21.6 231.04 21.6H227.12V25.64ZM227.12 32.1H231.14C233.26 32.1 233.86 31.08 233.86 29.74C233.86 28.24 232.94 27.38 231.44 27.38H227.12V32.1ZM242.461 34.3C239.281 34.3 237.361 32.1 237.361 28.9C237.361 25.72 239.281 23.48 242.481 23.48C245.641 23.48 247.561 25.7 247.561 28.88C247.561 32.08 245.641 34.3 242.461 34.3ZM242.481 32.68C244.561 32.68 245.521 31.02 245.521 28.9C245.521 26.76 244.561 25.12 242.481 25.12C240.361 25.12 239.401 26.76 239.401 28.9C239.401 31.02 240.361 32.68 242.481 32.68ZM253.969 23.56C254.329 23.56 254.609 23.58 254.909 23.62V25.5C254.669 25.46 254.489 25.44 254.249 25.44C252.469 25.44 251.189 26.78 251.189 28.72V34H249.229V23.8H251.189V25.74H251.229C251.769 24.46 252.589 23.56 253.969 23.56ZM260.922 23.56C261.282 23.56 261.562 23.58 261.862 23.62V25.5C261.622 25.46 261.442 25.44 261.202 25.44C259.422 25.44 258.142 26.78 258.142 28.72V34H256.182V23.8H258.142V25.74H258.182C258.722 24.46 259.542 23.56 260.922 23.56ZM267.265 34.3C264.085 34.3 262.165 32.1 262.165 28.9C262.165 25.72 264.085 23.48 267.285 23.48C270.445 23.48 272.365 25.7 272.365 28.88C272.365 32.08 270.445 34.3 267.265 34.3ZM267.285 32.68C269.365 32.68 270.325 31.02 270.325 28.9C270.325 26.76 269.365 25.12 267.285 25.12C265.165 25.12 264.205 26.76 264.205 28.9C264.205 31.02 265.165 32.68 267.285 32.68ZM278.04 34H276.02L272.86 23.8H274.98L277.14 31.7H277.18L279.3 23.8H281.28L283.4 31.7H283.44L285.62 23.8H287.66L284.5 34H282.48L280.28 26.14H280.24L278.04 34ZM291.036 21.98H288.816V19.86H291.036V21.98ZM290.896 34H288.936V23.8H290.896V34ZM298.456 23.5C300.336 23.5 301.856 24.58 301.856 26.92V34H299.896V27.46C299.896 26.1 299.296 25.18 297.816 25.18C296.136 25.18 295.056 26.2 295.056 27.74V34H293.096V23.8H295.056V25.08H295.096C295.636 24.3 296.696 23.5 298.456 23.5ZM311.175 25V23.8H313.135V33.2C313.135 36.28 311.275 37.66 308.355 37.66C305.435 37.66 303.975 36.26 303.775 34.42H305.815C306.015 35.34 306.695 36.06 308.355 36.06C310.215 36.06 311.175 35.24 311.175 33.32V31.94H311.135C310.575 32.76 309.635 33.48 307.995 33.48C305.455 33.48 303.495 31.76 303.495 28.5C303.495 25.22 305.455 23.5 307.995 23.5C309.635 23.5 310.575 24.28 311.135 25H311.175ZM308.355 31.86C310.115 31.86 311.155 30.72 311.155 28.5C311.155 26.26 310.115 25.14 308.355 25.14C306.435 25.14 305.535 26.58 305.535 28.5C305.535 30.42 306.435 31.86 308.355 31.86Z" fill="#6E6E6E"/>
</svg>
