<svg width="26" height="25" viewBox="0 0 26 25" fill="none" xmlns="http://www.w3.org/2000/svg">
<path d="M21.0213 8.61708L15.0479 3.32692C14.5003 2.8322 13.7897 2.55664 13.0517 2.55292C12.3138 2.5492 11.6004 2.81759 11.0479 3.30676L5.02149 8.53646C4.70243 8.81893 4.44721 9.16613 4.27282 9.55495C4.09843 9.94376 4.00887 10.3653 4.01011 10.7914L3.96607 19.5313C3.96206 20.3269 4.27428 21.0916 4.83405 21.657C5.39382 22.2224 6.15528 22.5424 6.95092 22.5464L18.9508 22.6068C19.7464 22.6108 20.5111 22.2986 21.0765 21.7388C21.6419 21.1791 21.9618 20.4176 21.9658 19.622L22.0099 10.8721C22.014 10.4477 21.928 10.0272 21.7576 9.63849C21.5872 9.24977 21.3362 8.90163 21.0213 8.61708ZM14.9609 20.5867L10.9609 20.5665L10.9861 15.5666C10.9875 15.3014 11.0941 15.0476 11.2826 14.861C11.4711 14.6744 11.726 14.5703 11.9912 14.5717L13.9911 14.5817C14.2564 14.5831 14.5102 14.6897 14.6968 14.8782C14.8833 15.0667 14.9874 15.3215 14.9861 15.5868L14.9609 20.5867ZM19.9659 19.6119C19.9645 19.8771 19.8579 20.1309 19.6694 20.3175C19.4809 20.5041 19.2261 20.6082 18.9608 20.6069L16.9609 20.5968L16.9861 15.5968C16.9901 14.8012 16.6778 14.0366 16.1181 13.4711C15.5583 12.9057 14.7969 12.5858 14.0012 12.5818L12.0012 12.5717C11.2056 12.5677 10.441 12.8799 9.87552 13.4397C9.31008 13.9994 8.99017 14.7609 8.98616 15.5565L8.96097 20.5565L6.96099 20.5464C6.69578 20.5451 6.44196 20.4384 6.25537 20.2499C6.06878 20.0615 5.96471 19.8066 5.96605 19.5414L6.01014 10.7915C6.01103 10.6495 6.04215 10.5093 6.10143 10.3803C6.1607 10.2513 6.24677 10.1364 6.35391 10.0432L12.3803 4.8235C12.5636 4.6641 12.7986 4.57687 13.0415 4.57809C13.2844 4.57931 13.5186 4.66891 13.7003 4.83015L19.6737 10.1103C19.7799 10.2046 19.8648 10.3203 19.9228 10.45C19.9808 10.5796 20.0105 10.72 20.01 10.862L19.9659 19.6119Z" fill="black"/>
</svg>
