<svg width="19" height="4" viewBox="0 0 19 4" fill="none" xmlns="http://www.w3.org/2000/svg">
<path d="M9.4751 0C9.07954 0 8.69286 0.117298 8.36396 0.337061C8.03506 0.556824 7.77871 0.869181 7.62734 1.23463C7.47596 1.60009 7.43636 2.00222 7.51353 2.39018C7.5907 2.77814 7.78118 3.13451 8.06089 3.41421C8.34059 3.69392 8.69696 3.8844 9.08492 3.96157C9.47288 4.03874 9.87501 3.99913 10.2405 3.84776C10.6059 3.69638 10.9183 3.44004 11.138 3.11114C11.3578 2.78224 11.4751 2.39556 11.4751 2C11.4751 1.46957 11.2644 0.96086 10.8893 0.585787C10.5142 0.210714 10.0055 0 9.4751 0ZM2.4751 0C2.07954 0 1.69286 0.117298 1.36396 0.337061C1.03506 0.556824 0.778715 0.869181 0.627339 1.23463C0.475964 1.60009 0.436358 2.00222 0.513528 2.39018C0.590698 2.77814 0.78118 3.13451 1.06088 3.41421C1.34059 3.69392 1.69696 3.8844 2.08492 3.96157C2.47288 4.03874 2.87501 3.99913 3.24047 3.84776C3.60592 3.69638 3.91827 3.44004 4.13804 3.11114C4.3578 2.78224 4.4751 2.39556 4.4751 2C4.4751 1.46957 4.26438 0.96086 3.88931 0.585787C3.51424 0.210714 3.00553 0 2.4751 0ZM16.4751 0C16.0795 0 15.6929 0.117298 15.364 0.337061C15.0351 0.556824 14.7787 0.869181 14.6273 1.23463C14.476 1.60009 14.4364 2.00222 14.5135 2.39018C14.5907 2.77814 14.7812 3.13451 15.0609 3.41421C15.3406 3.69392 15.697 3.8844 16.0849 3.96157C16.4729 4.03874 16.875 3.99913 17.2405 3.84776C17.6059 3.69638 17.9183 3.44004 18.138 3.11114C18.3578 2.78224 18.4751 2.39556 18.4751 2C18.4751 1.46957 18.2644 0.96086 17.8893 0.585787C17.5142 0.210714 17.0055 0 16.4751 0Z" fill="white"/>
</svg>
