<svg width="25" height="24" viewBox="0 0 25 24" fill="none" xmlns="http://www.w3.org/2000/svg">
<path d="M18.2099 11.29L13.2099 6.29002C13.1148 6.19898 13.0027 6.12761 12.8799 6.08002C12.6365 5.98 12.3634 5.98 12.1199 6.08002C11.9972 6.12761 11.885 6.19898 11.7899 6.29002L6.78994 11.29C6.6967 11.3833 6.62274 11.4939 6.57228 11.6158C6.52182 11.7376 6.49585 11.8682 6.49585 12C6.49585 12.2663 6.60164 12.5217 6.78994 12.71C6.97825 12.8983 7.23364 13.0041 7.49994 13.0041C7.76624 13.0041 8.02164 12.8983 8.20994 12.71L11.4999 9.41002V17C11.4999 17.2652 11.6053 17.5196 11.7928 17.7071C11.9804 17.8947 12.2347 18 12.4999 18C12.7652 18 13.0195 17.8947 13.207 17.7071C13.3946 17.5196 13.4999 17.2652 13.4999 17V9.41002L16.7899 12.71C16.8829 12.8037 16.9935 12.8781 17.1154 12.9289C17.2372 12.9797 17.3679 13.0058 17.4999 13.0058C17.632 13.0058 17.7627 12.9797 17.8845 12.9289C18.0064 12.8781 18.117 12.8037 18.2099 12.71C18.3037 12.6171 18.3781 12.5065 18.4288 12.3846C18.4796 12.2627 18.5057 12.132 18.5057 12C18.5057 11.868 18.4796 11.7373 18.4288 11.6154C18.3781 11.4936 18.3037 11.383 18.2099 11.29Z" fill="#6E6E6E"/>
</svg>
