<svg width="8" height="8" viewBox="0 0 8 8" fill="none" xmlns="http://www.w3.org/2000/svg">
<path d="M7.80646 3.52664L4.47313 0.193305C4.40973 0.132611 4.33497 0.0850345 4.25313 0.0533049C4.09082 -0.0133738 3.90877 -0.0133738 3.74646 0.0533049C3.66463 0.0850345 3.58987 0.132611 3.52646 0.193305L0.193131 3.52664C0.130972 3.5888 0.0816653 3.66259 0.0480251 3.74381C0.0143849 3.82502 -0.00292969 3.91207 -0.00292969 3.99997C-0.00292969 4.17751 0.0675956 4.34777 0.193131 4.47331C0.318667 4.59884 0.48893 4.66937 0.666465 4.66937C0.843999 4.66937 1.01426 4.59884 1.1398 4.47331L3.33313 2.2733V7.3333C3.33313 7.51012 3.40337 7.67969 3.52839 7.80471C3.65342 7.92973 3.82299 7.99997 3.9998 7.99997C4.17661 7.99997 4.34618 7.92973 4.4712 7.80471C4.59623 7.67969 4.66646 7.51012 4.66646 7.3333V2.2733L6.8598 4.47331C6.92177 4.53579 6.99551 4.58539 7.07675 4.61923C7.15799 4.65308 7.24512 4.6705 7.33313 4.6705C7.42114 4.6705 7.50828 4.65308 7.58952 4.61923C7.67075 4.58539 7.74449 4.53579 7.80646 4.47331C7.86895 4.41133 7.91855 4.3376 7.95239 4.25636C7.98624 4.17512 8.00366 4.08798 8.00366 3.99997C8.00366 3.91196 7.98624 3.82483 7.95239 3.74359C7.91855 3.66235 7.86895 3.58861 7.80646 3.52664Z" fill="#8A8A8A"/>
</svg>
