<svg width="33" height="33" viewBox="0 0 33 33" fill="none" xmlns="http://www.w3.org/2000/svg">
<path d="M29.4387 11.8799C29.4387 11.8799 29.4387 11.8799 29.4387 11.8112C28.4698 9.16599 26.7119 6.88219 24.4027 5.26874C22.0935 3.65529 19.3444 2.79004 16.5274 2.79004C13.7104 2.79004 10.9613 3.65529 8.6521 5.26874C6.3429 6.88219 4.58498 9.16599 3.61615 11.8112C3.61615 11.8112 3.61615 11.8112 3.61615 11.8799C2.5342 14.8649 2.5342 18.1349 3.61615 21.1199C3.61615 21.1199 3.61615 21.1199 3.61615 21.1887C4.58498 23.8339 6.3429 26.1177 8.6521 27.7311C10.9613 29.3446 13.7104 30.2098 16.5274 30.2098C19.3444 30.2098 22.0935 29.3446 24.4027 27.7311C26.7119 26.1177 28.4698 23.8339 29.4387 21.1887C29.4387 21.1887 29.4387 21.1887 29.4387 21.1199C30.5206 18.1349 30.5206 14.8649 29.4387 11.8799ZM5.8574 19.2499C5.38059 17.4476 5.38059 15.5523 5.8574 13.7499H8.4149C8.19495 15.5767 8.19495 17.4232 8.4149 19.2499H5.8574ZM6.9849 21.9999H8.9099C9.23264 23.2262 9.69394 24.4118 10.2849 25.5337C8.93644 24.6151 7.80921 23.408 6.9849 21.9999ZM8.9099 10.9999H6.9849C7.79735 9.59617 8.91017 8.38944 10.2437 7.46618C9.66691 8.58989 9.21947 9.77538 8.9099 10.9999ZM15.1249 27.0874C13.4361 25.8481 12.25 24.0421 11.7837 21.9999H15.1249V27.0874ZM15.1249 19.2499H11.1924C10.9358 17.4256 10.9358 15.5743 11.1924 13.7499H15.1249V19.2499ZM15.1249 10.9999H11.7837C12.25 8.95773 13.4361 7.15174 15.1249 5.91243V10.9999ZM26.0149 10.9999H24.0899C23.7672 9.77365 23.3059 8.58809 22.7149 7.46618C24.0634 8.38477 25.1906 9.59185 26.0149 10.9999ZM17.8749 5.91243C19.5637 7.15174 20.7498 8.95773 21.2162 10.9999H17.8749V5.91243ZM17.8749 27.0874V21.9999H21.2162C20.7498 24.0421 19.5637 25.8481 17.8749 27.0874ZM21.8074 19.2499H17.8749V13.7499H21.8074C22.064 15.5743 22.064 17.4256 21.8074 19.2499ZM22.7562 25.5337C23.3471 24.4118 23.8084 23.2262 24.1312 21.9999H26.0562C25.2318 23.408 24.1046 24.6151 22.7562 25.5337ZM27.1424 19.2499H24.5849C24.6967 18.3376 24.7518 17.4191 24.7499 16.4999C24.7514 15.5807 24.6963 14.6623 24.5849 13.7499H27.1424C27.6192 15.5523 27.6192 17.4476 27.1424 19.2499Z" fill="#8A8A8A"/>
</svg>
