<svg width="33" height="33" viewBox="0 0 33 33" fill="none" xmlns="http://www.w3.org/2000/svg">
<path d="M29.8374 14.1624L17.4624 3.1624C16.9124 2.7499 16.2249 2.7499 15.6749 3.1624L3.29989 14.1624C2.74989 14.7124 2.61239 15.5374 3.16239 16.0874C3.71239 16.6374 4.53739 16.7749 5.08739 16.2249L5.49989 15.6749V28.8749C5.49989 29.6999 6.04989 30.2499 6.87489 30.2499H26.1249C26.9499 30.2499 27.4999 29.6999 27.4999 28.8749V15.6749L27.9124 16.0874C28.4624 16.6374 29.2874 16.4999 29.8374 15.9499C30.3874 15.5374 30.3874 14.5749 29.8374 14.1624ZM16.4999 15.1249C18.5624 15.1249 20.2124 16.7749 20.2124 18.8374C20.2124 20.8999 18.5624 22.5499 16.4999 22.5499C14.4374 22.5499 12.7874 20.8999 12.7874 18.8374C12.7874 16.7749 14.4374 15.1249 16.4999 15.1249ZM9.62489 27.4999C9.62489 27.3624 9.62489 27.3624 9.76239 27.2249C12.7874 23.5124 18.2874 22.8249 21.9999 25.8499C22.5499 26.2624 22.9624 26.6749 23.3749 27.2249C23.3749 27.2249 23.3749 27.3624 23.5124 27.4999H9.62489Z" fill="white"/>
</svg>
