<svg width="14" height="14" viewBox="0 0 14 14" fill="none" xmlns="http://www.w3.org/2000/svg">
<path d="M7.00017 6.33337C6.82336 6.33337 6.65379 6.40361 6.52876 6.52864C6.40374 6.65366 6.3335 6.82323 6.3335 7.00004V9.66671C6.3335 9.84352 6.40374 10.0131 6.52876 10.1381C6.65379 10.2631 6.82336 10.3334 7.00017 10.3334C7.17698 10.3334 7.34655 10.2631 7.47157 10.1381C7.59659 10.0131 7.66683 9.84352 7.66683 9.66671V7.00004C7.66683 6.82323 7.59659 6.65366 7.47157 6.52864C7.34655 6.40361 7.17698 6.33337 7.00017 6.33337ZM7.2535 3.72004C7.09119 3.65336 6.90914 3.65336 6.74683 3.72004C6.665 3.75177 6.59024 3.79935 6.52683 3.86004C6.46795 3.92484 6.42059 3.99925 6.38683 4.08004C6.34951 4.15916 6.33125 4.24592 6.3335 4.33337C6.33299 4.42111 6.34981 4.50809 6.38299 4.58931C6.41616 4.67054 6.46504 4.74441 6.52683 4.80671C6.59163 4.86559 6.66604 4.91295 6.74683 4.94671C6.84783 4.9882 6.95748 5.00425 7.06613 4.99345C7.17479 4.98265 7.27912 4.94532 7.36997 4.88475C7.46083 4.82419 7.53541 4.74223 7.58717 4.64609C7.63893 4.54995 7.66629 4.44256 7.66683 4.33337C7.66438 4.15686 7.59532 3.9878 7.4735 3.86004C7.4101 3.79935 7.33533 3.75177 7.2535 3.72004ZM7.00017 0.333374C5.68162 0.333374 4.39269 0.724367 3.29636 1.45691C2.20004 2.18945 1.34555 3.23064 0.840969 4.44882C0.336385 5.66699 0.204362 7.00744 0.461597 8.30064C0.718832 9.59385 1.35377 10.7817 2.28612 11.7141C3.21847 12.6464 4.40636 13.2814 5.69956 13.5386C6.99277 13.7958 8.33322 13.6638 9.55139 13.1592C10.7696 12.6547 11.8108 11.8002 12.5433 10.7038C13.2758 9.60751 13.6668 8.31858 13.6668 7.00004C13.6668 6.12456 13.4944 5.25766 13.1594 4.44882C12.8243 3.63998 12.3333 2.90505 11.7142 2.286C11.0952 1.66694 10.3602 1.17588 9.55139 0.840844C8.74255 0.505812 7.87565 0.333374 7.00017 0.333374ZM7.00017 12.3334C5.94533 12.3334 4.91419 12.0206 4.03712 11.4345C3.16006 10.8485 2.47648 10.0156 2.07281 9.04102C1.66914 8.06648 1.56352 6.99412 1.76931 5.95956C1.9751 4.92499 2.48305 3.97468 3.22893 3.2288C3.97481 2.48292 4.92512 1.97497 5.95968 1.76919C6.99425 1.5634 8.06661 1.66902 9.04114 2.07268C10.0157 2.47635 10.8486 3.15994 11.4347 4.037C12.0207 4.91406 12.3335 5.94521 12.3335 7.00004C12.3335 8.41453 11.7716 9.77108 10.7714 10.7713C9.77121 11.7715 8.41465 12.3334 7.00017 12.3334Z" fill="white"/>
</svg>
