<svg width="33" height="33" viewBox="0 0 33 33" fill="none" xmlns="http://www.w3.org/2000/svg">
<path d="M19.25 24.7499C19.6147 24.7499 19.9644 24.6051 20.2223 24.3472C20.4801 24.0894 20.625 23.7396 20.625 23.3749L20.625 7.4387L23.7737 10.6012C24.0327 10.8601 24.3838 11.0056 24.75 11.0056C25.1162 11.0056 25.4673 10.8601 25.7262 10.6012C25.9852 10.3423 26.1306 9.99111 26.1306 9.62495C26.1306 9.25878 25.9852 8.90762 25.7262 8.6487L20.2262 3.1487C20.0329 2.95791 19.7873 2.82866 19.5206 2.77727C19.2539 2.72588 18.9779 2.75465 18.7275 2.85995C18.4764 2.9631 18.2614 3.13827 18.1097 3.36339C17.958 3.5885 17.8763 3.85349 17.875 4.12495L17.875 23.3749C17.875 23.7396 18.0199 24.0894 18.2777 24.3472C18.5356 24.6051 18.8853 24.7499 19.25 24.7499ZM14.2725 30.1399C14.5236 30.0368 14.7385 29.8616 14.8902 29.6365C15.042 29.4114 15.1236 29.1464 15.125 28.8749L15.125 9.62495C15.125 9.26027 14.9801 8.91054 14.7223 8.65268C14.4644 8.39481 14.1147 8.24995 13.75 8.24995C13.3853 8.24995 13.0356 8.39481 12.7777 8.65268C12.5199 8.91054 12.375 9.26027 12.375 9.62495L12.375 25.5612L9.22624 22.3987C9.09841 22.2698 8.94634 22.1675 8.77878 22.0977C8.61122 22.0279 8.4315 21.992 8.24999 21.992C8.06847 21.992 7.88875 22.0279 7.72119 22.0977C7.55364 22.1675 7.40156 22.2698 7.27374 22.3987C7.14486 22.5265 7.04257 22.6786 6.97276 22.8462C6.90295 23.0137 6.86701 23.1934 6.86701 23.3749C6.86701 23.5565 6.90295 23.7362 6.97276 23.9037C7.04257 24.0713 7.14486 24.2234 7.27374 24.3512L12.7737 29.8512C12.9671 30.042 13.2126 30.1712 13.4794 30.2226C13.7461 30.274 14.0221 30.2452 14.2725 30.1399Z" fill="#8A8A8A"/>
</svg>
