<svg width="14" height="10" viewBox="0 0 14 10" fill="none" xmlns="http://www.w3.org/2000/svg">
<path d="M10.9999 3.66663C10.9999 3.48982 10.9297 3.32025 10.8047 3.19522C10.6796 3.0702 10.5101 2.99996 10.3333 2.99996H2.6066L4.13993 1.47329C4.26547 1.34776 4.33599 1.1775 4.33599 0.999961C4.33599 0.822426 4.26547 0.652163 4.13993 0.526628C4.01439 0.401092 3.84413 0.330566 3.6666 0.330566C3.48906 0.330566 3.3188 0.401092 3.19326 0.526628L0.526597 3.19329C0.434092 3.28704 0.371428 3.40609 0.346512 3.53542C0.321595 3.66474 0.335544 3.79855 0.386597 3.91996C0.43661 4.04171 0.521542 4.14592 0.630689 4.21948C0.739836 4.29304 0.868313 4.33264 0.99993 4.33329H10.3333C10.5101 4.33329 10.6796 4.26306 10.8047 4.13803C10.9297 4.01301 10.9999 3.84344 10.9999 3.66663ZM13.6133 6.07996C13.5632 5.95822 13.4783 5.854 13.3692 5.78044C13.26 5.70689 13.1315 5.66728 12.9999 5.66663H3.6666C3.48979 5.66663 3.32022 5.73687 3.19519 5.86189C3.07017 5.98691 2.99993 6.15648 2.99993 6.33329C2.99993 6.51011 3.07017 6.67968 3.19519 6.8047C3.32022 6.92972 3.48979 6.99996 3.6666 6.99996H11.3933L9.85993 8.52663C9.79744 8.5886 9.74785 8.66234 9.714 8.74358C9.68016 8.82482 9.66273 8.91195 9.66273 8.99996C9.66273 9.08797 9.68016 9.17511 9.714 9.25635C9.74785 9.33758 9.79744 9.41132 9.85993 9.47329C9.92191 9.53578 9.99564 9.58538 10.0769 9.61922C10.1581 9.65307 10.2453 9.67049 10.3333 9.67049C10.4213 9.67049 10.5084 9.65307 10.5896 9.61922C10.6709 9.58538 10.7446 9.53578 10.8066 9.47329L13.4733 6.80663C13.5658 6.71288 13.6284 6.59383 13.6533 6.4645C13.6783 6.33518 13.6643 6.20137 13.6133 6.07996Z" fill="#828282"/>
</svg>
